<?xml version="1.0" encoding="UTF-8" standalone="no"?>
<!-- Created with Inkscape (http://www.inkscape.org/) -->

<svg
   width="30.623356mm"
   height="9.1311922mm"
   viewBox="0 0 30.623356 9.1311922"
   version="1.1"
   id="svg5"
   inkscape:version="1.1.1 (3bf5ae0d25, 2021-09-20)"
   sodipodi:docname="Linref_Logo_Simple_White.svg"
   inkscape:export-filename="D:\Python\linref\Media\Linref_Logo_Simple_White.png"
   inkscape:export-xdpi="1658.86"
   inkscape:export-ydpi="1658.86"
   xmlns:inkscape="http://www.inkscape.org/namespaces/inkscape"
   xmlns:sodipodi="http://sodipodi.sourceforge.net/DTD/sodipodi-0.dtd"
   xmlns="http://www.w3.org/2000/svg"
   xmlns:svg="http://www.w3.org/2000/svg">
  <sodipodi:namedview
     id="namedview7"
     pagecolor="#505050"
     bordercolor="#eeeeee"
     borderopacity="1"
     inkscape:pageshadow="0"
     inkscape:pageopacity="0"
     inkscape:pagecheckerboard="0"
     inkscape:document-units="mm"
     showgrid="false"
     inkscape:zoom="8.0000001"
     inkscape:cx="48.3125"
     inkscape:cy="27.0625"
     inkscape:window-width="1920"
     inkscape:window-height="1129"
     inkscape:window-x="-8"
     inkscape:window-y="-8"
     inkscape:window-maximized="1"
     inkscape:current-layer="layer1" />
  <defs
     id="defs2">
    <rect
       x="104.60197"
       y="301.3161"
       width="315.36713"
       height="120.21421"
       id="rect1947" />
  </defs>
  <g
     inkscape:label="Layer 1"
     inkscape:groupmode="layer"
     id="layer1"
     transform="translate(-73.896744,-99.993678)">
    <text
       xml:space="preserve"
       transform="scale(0.26458333)"
       id="text1945"
       style="font-style:normal;font-weight:normal;font-size:40px;line-height:1.25;font-family:sans-serif;white-space:pre;shape-inside:url(#rect1947);fill:#ffffff;fill-opacity:1;stroke:none" />
    <path
       d="m 73.927746,100.20038 h 1.080034 v 7.05381 h -1.080034 z"
       id="path37584"
       style="font-size:10.5833px;font-family:'Franklin Gothic Medium Cond';-inkscape-font-specification:'Franklin Gothic Medium Cond, Normal';stroke-width:0.264583;fill:#ffffff" />
    <path
       d="M 77.374553,101.33209 H 76.24801 v -1.14204 h 1.126543 z m -1.100705,0.7028 h 1.074867 v 5.2193 h -1.074867 z"
       id="path37586"
       style="font-size:10.5833px;font-family:'Franklin Gothic Medium Cond';-inkscape-font-specification:'Franklin Gothic Medium Cond, Normal';stroke-width:0.264583;fill:#ffffff" />
    <path
       d="m 78.619951,102.03489 h 0.997351 v 0.80614 q 0.361733,-0.93017 1.291904,-0.93017 0.527098,0 0.84749,0.25322 0.325561,0.25321 0.408243,0.60978 0.08785,0.35139 0.08785,1.1162 v 3.36413 h -1.074864 v -3.30728 q 0,-0.68213 -0.118856,-0.92501 -0.118855,-0.24804 -0.506428,-0.24804 -0.403074,0 -0.630449,0.31522 -0.222207,0.31006 -0.222207,1.24023 v 2.92488 h -1.080033 z"
       id="path37588"
       style="font-size:10.5833px;font-family:'Franklin Gothic Medium Cond';-inkscape-font-specification:'Franklin Gothic Medium Cond, Normal';stroke-width:0.264583;fill:#ffffff" />
    <path
       d="m 83.487855,102.03489 h 0.950843 v 1.16788 q 0.434081,-1.27641 1.302242,-1.27641 0.08268,0 0.19637,0.0155 v 1.12137 q -0.134358,-0.0155 -0.21704,-0.0155 -1.152381,0 -1.152381,1.55029 v 2.65616 h -1.080034 z"
       id="path37590"
       style="font-size:10.5833px;font-family:'Franklin Gothic Medium Cond';-inkscape-font-specification:'Franklin Gothic Medium Cond, Normal';stroke-width:0.264583;fill:#ffffff" />
    <path
       d="m 90.164428,104.80473 h -2.950715 q 0,1.05937 0.28422,1.41593 0.289387,0.3514 0.723468,0.3514 0.723467,0 0.91467,-0.97668 l 0.981849,0.12919 q -0.387572,1.65881 -1.932693,1.65881 -0.945675,0 -1.508947,-0.67696 -0.563271,-0.67696 -0.563271,-1.98437 0,-1.34358 0.568439,-2.07738 0.568439,-0.73381 1.519282,-0.73381 0.666624,0 1.121375,0.3669 0.454751,0.36691 0.640786,0.96635 0.186034,0.59428 0.201537,1.56062 z m -1.100704,-0.72863 q 0,-1.37976 -0.899167,-1.37976 -0.842323,0 -0.925005,1.37976 z"
       id="path37592"
       style="font-size:10.5833px;font-family:'Franklin Gothic Medium Cond';-inkscape-font-specification:'Franklin Gothic Medium Cond, Normal';stroke-width:0.264583;fill:#ffffff" />
    <path
       d="m 92.262485,102.03489 h 0.93534 v 0.86816 h -0.93534 v 4.35114 h -1.054196 v -4.35114 h -0.682127 v -0.86816 h 0.682127 q 0.0155,-0.93017 0.160196,-1.28157 0.144694,-0.35657 0.470254,-0.55811 0.330729,-0.201532 0.894,-0.201532 0.32556,0 0.635618,0.06201 v 0.85782 q -0.222208,-0.0362 -0.408243,-0.0362 -0.320392,0 -0.475421,0.11886 -0.149861,0.11885 -0.186035,0.30489 -0.03617,0.18087 -0.03617,0.7338 z"
       id="path37594"
       style="font-size:10.5833px;font-family:'Franklin Gothic Medium Cond';-inkscape-font-specification:'Franklin Gothic Medium Cond, Normal';stroke-width:0.264583;fill:#ffffff" />
    <path
       d="m 93.79727,105.92094 h 1.178219 v 1.33325 H 93.79727 Z"
       id="path37596"
       style="font-size:10.5833px;font-family:'Franklin Gothic Medium Cond';-inkscape-font-specification:'Franklin Gothic Medium Cond, Normal';stroke-width:0.264583;fill:#ffffff" />
    <path
       d="m 96.282899,102.03489 h 0.992185 v 0.85782 q 0.408242,-0.94567 1.291906,-0.94567 0.790647,0 1.276404,0.69246 0.485766,0.68729 0.485766,1.9637 0,1.14204 -0.444425,1.94302 -0.439248,0.80099 -1.369421,0.80099 -0.744138,0 -1.162716,-0.63562 v 2.30993 h -1.069699 z m 1.069699,3.03856 q 0,0.50126 0.07235,0.78548 0.07751,0.27905 0.310057,0.48059 0.232544,0.19637 0.527098,0.19637 0.919838,0 0.919838,-1.93269 0,-1.87069 -0.899167,-1.87069 -0.397907,0 -0.666624,0.38241 -0.263549,0.3824 -0.263549,1.09037 z"
       id="path37598"
       style="font-size:10.5833px;font-family:'Franklin Gothic Medium Cond';-inkscape-font-specification:'Franklin Gothic Medium Cond, Normal';stroke-width:0.264583;fill:#ffffff" />
    <path
       d="m 100.62371,102.03489 h 1.08004 l 0.9095,3.58633 0.93534,-3.58633 h 0.97151 l -1.69498,5.55003 q -0.18603,0.60461 -0.34106,0.894 -0.15503,0.28938 -0.43925,0.46508 -0.28422,0.18087 -0.7338,0.18087 -0.26872,0 -0.55294,-0.0724 v -0.85782 q 0.2067,0.0362 0.37724,0.0362 0.41857,0 0.59427,-0.20671 0.1757,-0.20153 0.37724,-0.94567 z"
       id="path37600"
       style="font-size:10.5833px;font-family:'Franklin Gothic Medium Cond';-inkscape-font-specification:'Franklin Gothic Medium Cond, Normal';stroke-width:0.264583;fill:#ffffff" />
    <rect
       style="fill:#ffffff;fill-opacity:1;stroke-width:0.264583"
       id="rect38915"
       width="1.1420399"
       height="1.1265401"
       x="76.232513"
       y="107.97249" />
    <rect
       style="fill:#ffffff;fill-opacity:1;stroke-width:0.264583"
       id="rect38915-99"
       width="1.1420399"
       height="1.1265401"
       x="73.896744"
       y="107.97249" />
    <rect
       style="fill:#ffffff;fill-opacity:1;stroke-width:0.471904"
       id="rect38915-9"
       height="1.1265401"
       x="78.619949"
       y="107.97249"
       ry="0"
       width="3.6329999" />
    <rect
       style="fill:#ffffff;fill-opacity:1;stroke-width:0.264583"
       id="rect38915-8"
       width="1.1420399"
       height="1.1265401"
       x="83.42585"
       y="107.97249" />
    <rect
       style="fill:#ffffff;fill-opacity:1;stroke-width:0.471904"
       id="rect38915-9-7"
       width="3.6329999"
       height="1.1265401"
       x="78.619949"
       y="100.19005"
       ry="0" />
    <rect
       style="fill:#ffffff;fill-opacity:1;stroke-width:0.471904"
       id="rect38915-9-7-8"
       width="3.6329999"
       height="1.1265401"
       x="86.32222"
       y="100.19005"
       ry="0" />
    <rect
       style="fill:#ffffff;fill-opacity:1;stroke-width:0.264583"
       id="rect38915-8-86"
       width="1.1420399"
       height="1.1265401"
       x="83.42585"
       y="100.19005" />
  </g>
  <g
     inkscape:groupmode="layer"
     id="layer2"
     inkscape:label="ReferenceText"
     style="display:none"
     transform="translate(-73.896744,-99.993678)">
    <text
       xml:space="preserve"
       style="font-style:normal;font-variant:normal;font-weight:normal;font-stretch:normal;font-size:10.5833px;line-height:1.25;font-family:'Franklin Gothic Medium Cond';-inkscape-font-specification:'Franklin Gothic Medium Cond, Normal';font-variant-ligatures:normal;font-variant-caps:normal;font-variant-numeric:normal;font-variant-east-asian:normal;fill:#ffffff;fill-opacity:1;stroke:none;stroke-width:0.264583"
       x="73.940193"
       y="91.702354"
       id="text2855"><tspan
         sodipodi:role="line"
         id="tspan2853"
         style="font-style:normal;font-variant:normal;font-weight:normal;font-stretch:normal;font-size:10.5833px;font-family:'Franklin Gothic Medium Cond';-inkscape-font-specification:'Franklin Gothic Medium Cond, Normal';font-variant-ligatures:normal;font-variant-caps:normal;font-variant-numeric:normal;font-variant-east-asian:normal;stroke-width:0.264583"
         x="73.940193"
         y="91.702354">linref.py</tspan></text>
  </g>
</svg>
